<svg xmlns="http://www.w3.org/2000/svg" xmlns:xlink="http://www.w3.org/1999/xlink" width="24" height="24" viewBox="0 0 24 24">
  <defs>
    <clipPath id="clip-path">
      <rect id="Rectangle_18120" data-name="Rectangle 18120" width="24" height="24" transform="translate(633 1173)" fill="#2d3142" stroke="#707070" stroke-width="1"/>
    </clipPath>
  </defs>
  <g id="Mask_Group_29611" data-name="Mask Group 29611" transform="translate(-633 -1173)" clip-path="url(#clip-path)">
    <g id="svgexport-6_2_" data-name="svgexport-6 (2)" transform="translate(636.911 1175.741)">
      <g id="Group_73645" data-name="Group 73645" transform="translate(3.974 8.852)">
        <g id="Group_73644" data-name="Group 73644">
          <path id="Path_219725" data-name="Path 219725" d="M13.519,11.4H6.5A.608.608,0,0,0,5.9,12v1.422h8.23V12A.608.608,0,0,0,13.519,11.4Z" transform="translate(-5.895 -11.396)" fill="#2d3142"/>
        </g>
      </g>
      <g id="Group_73647" data-name="Group 73647" transform="translate(0 3.59)">
        <g id="Group_73646" data-name="Group 73646">
          <path id="Path_219726" data-name="Path 219726" d="M15.027,3.59H1.151A1.152,1.152,0,0,0,0,4.741v4.15a1.992,1.992,0,0,0,1.989,1.989H3V9.459A1.581,1.581,0,0,1,4.581,7.88H11.6a1.581,1.581,0,0,1,1.579,1.579v1.422h1.012a1.992,1.992,0,0,0,1.989-1.989V4.741A1.152,1.152,0,0,0,15.027,3.59ZM3.974,6.13A.486.486,0,0,1,3,6.13V5.547a.486.486,0,0,1,.972,0V6.13Zm1.175,0a.486.486,0,0,1-.972,0V5.547a.486.486,0,0,1,.972,0Z" transform="translate(0 -3.59)" fill="#2d3142"/>
        </g>
      </g>
      <g id="Group_73649" data-name="Group 73649" transform="translate(5.405 11.671)">
        <g id="Group_73648" data-name="Group 73648">
          <path id="Path_219727" data-name="Path 219727" d="M9.552,18.005l-.323-.323a.073.073,0,0,1,0-.1,1.045,1.045,0,0,0,0-1.478l-.246-.246-.135-.135a.486.486,0,0,0-.687.687l.381.381a.073.073,0,0,1,0,.1,1.046,1.046,0,0,0,0,1.478l.323.323a.486.486,0,0,0,.687-.687Z" transform="translate(-8.018 -15.579)" fill="#2d3142"/>
        </g>
      </g>
      <g id="Group_73651" data-name="Group 73651" transform="translate(7.251 11.671)">
        <g id="Group_73650" data-name="Group 73650">
          <path id="Path_219728" data-name="Path 219728" d="M12.291,18.005l-.323-.323a.073.073,0,0,1,0-.1,1.046,1.046,0,0,0,0-1.478l-.246-.246-.135-.135a.486.486,0,0,0-.687.687l.381.381a.073.073,0,0,1,0,.1,1.045,1.045,0,0,0,0,1.478l.323.323a.486.486,0,1,0,.687-.687Z" transform="translate(-10.757 -15.579)" fill="#2d3142"/>
        </g>
      </g>
      <g id="Group_73653" data-name="Group 73653" transform="translate(9.098 11.671)">
        <g id="Group_73652" data-name="Group 73652">
          <path id="Path_219729" data-name="Path 219729" d="M15.03,18.005l-.323-.323a.073.073,0,0,1,0-.1,1.045,1.045,0,0,0,0-1.478l-.246-.246-.135-.135a.486.486,0,0,0-.687.687l.381.381a.073.073,0,0,1,0,.1,1.045,1.045,0,0,0,0,1.478l.323.323a.486.486,0,1,0,.687-.687Z" transform="translate(-13.497 -15.579)" fill="#2d3142"/>
        </g>
      </g>
    </g>
  </g>
</svg>
