<svg xmlns="http://www.w3.org/2000/svg" xmlns:xlink="http://www.w3.org/1999/xlink" width="24" height="24" viewBox="0 0 24 24">
  <defs>
    <clipPath id="clip-path">
      <rect id="Rectangle_18118" data-name="Rectangle 18118" width="24" height="24" transform="translate(419 1173)" fill="#2d3142" stroke="#707070" stroke-width="1"/>
    </clipPath>
  </defs>
  <g id="Mask_Group_29610" data-name="Mask Group 29610" transform="translate(-419 -1173)" clip-path="url(#clip-path)">
    <g id="svgexport-6" transform="translate(421.366 1176.938)">
      <g id="Group_73643" data-name="Group 73643" transform="translate(4.791)">
        <path id="Path_219723" data-name="Path 219723" d="M5.7,7.042h7.87a.908.908,0,0,0,.74-1.435L10.716.558a1.328,1.328,0,0,0-2.164,0L4.959,5.607A.908.908,0,0,0,5.7,7.042Z" transform="translate(-4.791)" fill="#2d3142"/>
        <path id="Path_219724" data-name="Path 219724" d="M13.569,13.519H5.7a.908.908,0,0,0-.74,1.435L8.553,20a1.328,1.328,0,0,0,2.164,0l3.593-5.049a.908.908,0,0,0-.74-1.435Z" transform="translate(-4.791 -4.436)" fill="#2d3142"/>
      </g>
    </g>
  </g>
</svg>
