<svg xmlns="http://www.w3.org/2000/svg" xmlns:xlink="http://www.w3.org/1999/xlink" width="28" height="28" viewBox="0 0 28 28">
  <defs>
    <clipPath id="clip-path">
      <rect id="Rectangle_17921" data-name="Rectangle 17921" width="28" height="28" transform="translate(554 58)" fill="#d3d0e2" stroke="#707070" stroke-width="1"/>
    </clipPath>
  </defs>
  <g id="Mask_Group_29517" data-name="Mask Group 29517" transform="translate(-554 -58)" clip-path="url(#clip-path)">
    <g id="Icon_ionic-ios-eye-off" data-name="Icon ionic-ios-eye-off" transform="translate(558.089 60.935)">
      <path id="Path_21241" data-name="Path 21241" d="M5.541,4.675a.608.608,0,0,0-.859.859l15.2,15.206a.6.6,0,0,0,.586.154.592.592,0,0,0,.274-.158.606.606,0,0,0,0-.855Z" transform="translate(-2.595 -1.643)" fill="#d3d0e2"/>
      <g id="Group_31518" data-name="Group 31518" transform="translate(0.336 5.908)">
        <path id="Path_21242" data-name="Path 21242" d="M12.006,19.308a3.844,3.844,0,0,1-3.655-5.489L6.068,11.531A29.988,29.988,0,0,0,2.43,15.007a.676.676,0,0,0,0,.911c2.775,3.065,5.22,5.7,9.392,5.7a8.231,8.231,0,0,0,3.518-.821l-1.86-1.86A3.885,3.885,0,0,1,12.006,19.308Z" transform="translate(-2.252 -9.308)" fill="#d3d0e2"/>
        <path id="Path_21243" data-name="Path 21243" d="M25.131,14.459a.671.671,0,0,0,.021-.885c-2.236-2.715-5.335-5.7-9.427-5.7a8,8,0,0,0-3.506.812l1.868,1.868a3.767,3.767,0,0,1,1.466-.368,3.844,3.844,0,0,1,3.655,5.489L21.5,17.964A28.278,28.278,0,0,0,25.131,14.459Z" transform="translate(-6.159 -7.875)" fill="#d3d0e2"/>
        <path id="Path_21244" data-name="Path 21244" d="M13.509,17.7a2.747,2.747,0,0,0,2.518,2.518,2.672,2.672,0,0,0,1-.111l-3.412-3.412A2.8,2.8,0,0,0,13.509,17.7Z" transform="translate(-6.661 -11.331)" fill="#d3d0e2"/>
        <path id="Path_21245" data-name="Path 21245" d="M21.91,17.893c0-.056,0-.111,0-.167a1.9,1.9,0,0,1-.778.167c-.047,0-.09,0-.133,0l.8.8A2.734,2.734,0,0,0,21.91,17.893Z" transform="translate(-9.599 -11.736)" fill="#d3d0e2"/>
        <path id="Path_21246" data-name="Path 21246" d="M17.49,14.227a2.009,2.009,0,0,1,.133-.722c-.043,0-.086,0-.133,0a2.7,2.7,0,0,0-.791.12l.8.8C17.494,14.355,17.49,14.291,17.49,14.227Z" transform="translate(-7.915 -10.08)" fill="#d3d0e2"/>
      </g>
    </g>
  </g>
</svg>
