<svg xmlns="http://www.w3.org/2000/svg" xmlns:xlink="http://www.w3.org/1999/xlink" width="30" height="30" viewBox="0 0 30 30">
  <defs>
    <clipPath id="clip-path">
      <rect id="Rectangle_11489" data-name="Rectangle 11489" width="24" height="24" transform="translate(26 167)" fill="#fff" stroke="#707070" stroke-width="1"/>
    </clipPath>
  </defs>
  <g id="Group_73166" data-name="Group 73166" transform="translate(-189 -1684)">
    <rect id="Rectangle_17892" data-name="Rectangle 17892" width="30" height="30" rx="8" transform="translate(189 1684)" fill="#fff"/>
    <g id="Mask_Group_29522" data-name="Mask Group 29522" transform="translate(166 1520)" clip-path="url(#clip-path)">
      <path id="Icon_awesome-star" data-name="Icon awesome-star" d="M8.278.509,6.409,4.3l-4.183.61a.917.917,0,0,0-.507,1.563L4.745,9.422,4.03,13.587a.916.916,0,0,0,1.328.965L9.1,12.585l3.742,1.967a.916.916,0,0,0,1.328-.965l-.716-4.166,3.026-2.949a.917.917,0,0,0-.507-1.563L11.791,4.3,9.922.509a.917.917,0,0,0-1.643,0Z" transform="translate(28.9 171.671)" fill="#ffc107"/>
    </g>
  </g>
</svg>
