<svg xmlns="http://www.w3.org/2000/svg" xmlns:xlink="http://www.w3.org/1999/xlink" width="24" height="24" viewBox="0 0 24 24">
  <defs>
    <clipPath id="clip-path">
      <rect id="Rectangle_18122" data-name="Rectangle 18122" width="24" height="24" transform="translate(847 1173)" fill="#2d3142" stroke="#707070" stroke-width="1"/>
    </clipPath>
  </defs>
  <g id="Mask_Group_29612" data-name="Mask Group 29612" transform="translate(-847 -1173)" clip-path="url(#clip-path)">
    <g id="svgexport-6_3_" data-name="svgexport-6 (3)" transform="translate(850.558 1176.182)">
      <g id="Group_73654" data-name="Group 73654" transform="translate(0 1.268)">
        <path id="Path_219730" data-name="Path 219730" d="M14.689,12.046a.761.761,0,0,0-.2.028l-.383.105-.49-1.194a1.737,1.737,0,0,0-1.486-1H7.036a1.737,1.737,0,0,0-1.486,1l-.489,1.192-.376-.1a.762.762,0,0,0-.2-.028.621.621,0,0,0-.625.658v.014a.808.808,0,0,0,.656.793A6.088,6.088,0,0,0,4.147,15.4v2.479a.808.808,0,0,0,.807.807h.465a.808.808,0,0,0,.807-.807v-.518h6.711v.518a.808.808,0,0,0,.807.807h.465a.808.808,0,0,0,.807-.807V15.4a6.088,6.088,0,0,0-.367-1.893.808.808,0,0,0,.664-.794V12.7A.621.621,0,0,0,14.689,12.046Zm-9.109.96.778-1.9a1.044,1.044,0,0,1,.891-.6h4.666a1.044,1.044,0,0,1,.891.6l.778,1.9a.4.4,0,0,1-.4.6h-7.2A.4.4,0,0,1,5.58,13.007Zm1.951,2.847a.324.324,0,0,1-.323.323H5.658a.324.324,0,0,1-.323-.323v-.66a.324.324,0,0,1,.323-.323H7.209a.324.324,0,0,1,.323.323v.66Zm6.282,0a.324.324,0,0,1-.323.323H11.94a.324.324,0,0,1-.323-.323v-.66a.324.324,0,0,1,.323-.323h1.551a.324.324,0,0,1,.323.323Z" transform="translate(-1.144 -3.854)" fill="#2d3142"/>
        <path id="Path_219731" data-name="Path 219731" d="M15.371,1.268H1.514A1.515,1.515,0,0,0,0,2.782V15.527a.841.841,0,0,0,1.682,0V6.62H15.2v8.907a.841.841,0,1,0,1.682,0V2.782A1.515,1.515,0,0,0,15.371,1.268ZM1.682,4.687H15.2v.294H1.682Zm0-.673V3.778H15.2v.236Zm0,1.933V5.654H15.2v.294H1.682Z" transform="translate(0 -1.268)" fill="#2d3142"/>
      </g>
    </g>
  </g>
</svg>
