<svg xmlns="http://www.w3.org/2000/svg" xmlns:xlink="http://www.w3.org/1999/xlink" width="26" height="26" viewBox="0 0 26 26">
  <defs>
    <clipPath id="clip-path">
      <rect id="Rectangle_11485" data-name="Rectangle 11485" width="26" height="26" transform="translate(335.908 99.654)" fill="#fff" stroke="#707070" stroke-width="1"/>
    </clipPath>
  </defs>
  <g id="Mask_Group_29520" data-name="Mask Group 29520" transform="translate(-335.908 -99.654)" clip-path="url(#clip-path)">
    <g id="svgexport-6_1_" data-name="svgexport-6 (1)" transform="translate(333.671 97.417)">
      <g id="_00-38-apps_-arrange_-array_-grid_-layout_-menu_-view" data-name="00-38-apps,-arrange,-array,-grid,-layout,-menu,-view" transform="translate(6 6)">
        <path id="Shape" d="M22.935,15.75a1.547,1.547,0,0,1,1.54,1.54v5.645a1.54,1.54,0,0,1-1.54,1.54H17.29a1.547,1.547,0,0,1-1.54-1.54V17.29a1.541,1.541,0,0,1,1.54-1.54Zm-9.75,0a1.547,1.547,0,0,1,1.54,1.54v5.645a1.54,1.54,0,0,1-1.54,1.54H7.54A1.547,1.547,0,0,1,6,22.935V17.29a1.541,1.541,0,0,1,1.54-1.54Zm9.75,1.026H17.29a.516.516,0,0,0-.513.513v5.645a.511.511,0,0,0,.513.513h5.645a.511.511,0,0,0,.513-.513V17.29A.508.508,0,0,0,22.935,16.777Zm-9.75,0H7.54a.516.516,0,0,0-.513.513v5.645a.511.511,0,0,0,.513.513h5.645a.511.511,0,0,0,.513-.513V17.29A.508.508,0,0,0,13.185,16.777ZM22.935,6a1.547,1.547,0,0,1,1.54,1.54v5.645a1.54,1.54,0,0,1-1.54,1.54H17.29a1.547,1.547,0,0,1-1.54-1.54V7.54A1.541,1.541,0,0,1,17.29,6Zm-9.75,0a1.547,1.547,0,0,1,1.54,1.54v5.645a1.54,1.54,0,0,1-1.54,1.54H7.54A1.547,1.547,0,0,1,6,13.185V7.54A1.541,1.541,0,0,1,7.54,6Zm9.75,1.026H17.29a.516.516,0,0,0-.513.513v5.645a.511.511,0,0,0,.513.513h5.645a.511.511,0,0,0,.513-.513V7.54A.508.508,0,0,0,22.935,7.026Zm-9.75,0H7.54a.516.516,0,0,0-.513.513v5.645a.511.511,0,0,0,.513.513h5.645a.511.511,0,0,0,.513-.513V7.54A.508.508,0,0,0,13.185,7.026Z" transform="translate(-6 -6)"/>
      </g>
    </g>
  </g>
</svg>
