<svg xmlns="http://www.w3.org/2000/svg" xmlns:xlink="http://www.w3.org/1999/xlink" width="24" height="24" viewBox="0 0 24 24">
  <defs>
    <clipPath id="clip-path">
      <rect id="Rectangle_11488" data-name="Rectangle 11488" width="24" height="24" transform="translate(26 167)" fill="#fff" stroke="#707070" stroke-width="1"/>
    </clipPath>
  </defs>
  <g id="Mask_Group_29521" data-name="Mask Group 29521" transform="translate(-26 -167)" clip-path="url(#clip-path)">
    <g id="favorite_line" data-name="favorite line" transform="translate(49.405 169.327)">
      <path id="Path_218959" data-name="Path 218959" d="M7.967.5A3.477,3.477,0,0,0,5.6,1.457,3.477,3.477,0,0,0,3.224.5,3.189,3.189,0,0,0,0,3.724c0,2.113,2.436,4.439,5.378,7.041a.328.328,0,0,0,.434,0c2.942-2.6,5.378-4.928,5.378-7.041A3.189,3.189,0,0,0,7.967.5ZM5.6,10.081C2.966,7.747.656,5.512.656,3.724A2.541,2.541,0,0,1,3.224,1.156a2.852,2.852,0,0,1,2.121.99.328.328,0,0,0,.5,0,2.852,2.852,0,0,1,2.121-.99,2.541,2.541,0,0,1,2.568,2.568C10.535,5.512,8.224,7.747,5.6,10.081Zm0,0" transform="translate(-17 4)" fill="#2d3142"/>
    </g>
  </g>
</svg>
