<svg xmlns="http://www.w3.org/2000/svg" xmlns:xlink="http://www.w3.org/1999/xlink" width="24" height="24" viewBox="0 0 24 24">
  <defs>
    <clipPath id="clip-path">
      <rect id="Rectangle_17842" data-name="Rectangle 17842" width="24" height="24" transform="translate(0 0)" fill="#aeaeae" stroke="#707070" stroke-width="1"/>
    </clipPath>
  </defs>
  <g id="Mask_Group_29475" data-name="Mask Group 29475" transform="translate(24) rotate(90)" clip-path="url(#clip-path)">
    <g id="arrow" transform="translate(5.839 6.399)">
      <path id="Down_Arrow_9_" d="M6.161,0a.558.558,0,0,0-.4.164l-5.6,5.6a.56.56,0,0,0,.792.792l5.2-5.2,5.2,5.2a.56.56,0,0,0,.792-.792l-5.6-5.6A.558.558,0,0,0,6.161,0Zm.4,4.645,5.6,5.6a.56.56,0,0,1-.792.792l-5.2-5.2-5.2,5.2a.56.56,0,0,1-.792-.792l5.6-5.6a.56.56,0,0,1,.792,0Z" fill="#aeaeae"/>
    </g>
  </g>
</svg>
