<svg xmlns="http://www.w3.org/2000/svg" xmlns:xlink="http://www.w3.org/1999/xlink" width="24" height="24" viewBox="0 0 24 24">
  <defs>
    <clipPath id="clip-path">
      <rect id="Rectangle_18117" data-name="Rectangle 18117" width="24" height="24" transform="translate(205 1173)" fill="#2d3142" stroke="#707070" stroke-width="1"/>
    </clipPath>
  </defs>
  <g id="Mask_Group_29609" data-name="Mask Group 29609" transform="translate(-205 -1173)" clip-path="url(#clip-path)">
    <g id="svgexport-6_1_" data-name="svgexport-6 (1)" transform="translate(210.048 1176.836)">
      <g id="surface1" transform="translate(0 0)">
        <path id="Path_219720" data-name="Path 219720" d="M13.888,4.43V4.417c-.007-.157-.012-.323-.015-.507a1.731,1.731,0,0,0-1.629-1.7A6.715,6.715,0,0,1,7.673.288L7.662.278a1.045,1.045,0,0,0-1.42,0l-.011.01a6.716,6.716,0,0,1-4.57,1.927A1.73,1.73,0,0,0,.032,3.91c0,.183-.008.349-.015.507v.03a17.7,17.7,0,0,0,.715,6.459A8.222,8.222,0,0,0,2.7,13.979a10.319,10.319,0,0,0,3.86,2.283,1.194,1.194,0,0,0,.158.043,1.169,1.169,0,0,0,.459,0,1.2,1.2,0,0,0,.159-.043A10.326,10.326,0,0,0,11.2,13.977,8.234,8.234,0,0,0,13.17,10.9,17.722,17.722,0,0,0,13.888,4.43Zm-1.617,6.142a7.922,7.922,0,0,1-5.246,4.785l-.03.008a.215.215,0,0,1-.084,0l-.03-.008a7.913,7.913,0,0,1-5.249-4.782,16.7,16.7,0,0,1-.656-6.11V4.455c.007-.166.012-.339.015-.53a.769.769,0,0,1,.725-.753,8.406,8.406,0,0,0,2.853-.628A7.465,7.465,0,0,0,6.893.982a.088.088,0,0,1,.119,0A7.467,7.467,0,0,0,9.337,2.544a8.406,8.406,0,0,0,2.853.628.769.769,0,0,1,.725.753c0,.192.008.365.015.53A16.7,16.7,0,0,1,12.271,10.572Zm0,0" transform="translate(0 0)" fill="#2d3142"/>
        <path id="Path_219721" data-name="Path 219721" d="M8.307,6.019a4.069,4.069,0,1,0,4.069,4.069A4.074,4.074,0,0,0,8.307,6.019Zm0,7.18a3.111,3.111,0,1,1,3.111-3.111A3.115,3.115,0,0,1,8.307,13.2Zm0,0" transform="translate(-1.355 -1.924)" fill="#2d3142"/>
        <path id="Path_219722" data-name="Path 219722" d="M10.424,10.077l-1.89,1.89-.513-.513a.479.479,0,0,0-.678.677l.852.852a.479.479,0,0,0,.677,0L11.1,10.755a.479.479,0,0,0-.678-.677Zm0,0" transform="translate(-2.303 -3.177)" fill="#2d3142"/>
      </g>
    </g>
  </g>
</svg>
