<svg xmlns="http://www.w3.org/2000/svg" xmlns:xlink="http://www.w3.org/1999/xlink" width="16" height="16" viewBox="0 0 16 16">
  <defs>
    <clipPath id="clip-path">
      <rect id="Rectangle_18072" data-name="Rectangle 18072" width="16" height="16" transform="translate(214 263)" fill="#fff" stroke="#707070" stroke-width="1"/>
    </clipPath>
  </defs>
  <g id="Mask_Group_29584" data-name="Mask Group 29584" transform="translate(-214 -263)" clip-path="url(#clip-path)">
    <g id="car_2" data-name="car 2" transform="translate(214 263)">
      <path id="Path_219452" data-name="Path 219452" d="M15.777,8.689a2.343,2.343,0,0,0-.49-1.308,4.029,4.029,0,0,1-.782-1.528A18.677,18.677,0,0,0,13.2,3.043a2.254,2.254,0,0,0-1.652-1.089,46.955,46.955,0,0,0-7.1,0A2.257,2.257,0,0,0,2.8,3.043,18.729,18.729,0,0,0,1.494,5.854,4.029,4.029,0,0,1,.713,7.382,2.343,2.343,0,0,0,.223,8.689C.174,9.72.472,9.946.739,12.278A.363.363,0,0,0,1.1,12.6H14.9a.363.363,0,0,0,.361-.321c.075-.654.3-1.981.3-1.981A4.857,4.857,0,0,0,15.777,8.689Z" fill="#e95353"/>
      <path id="Path_219453" data-name="Path 219453" d="M14.215,5.8a20.114,20.114,0,0,0-1.229-2.6,2.033,2.033,0,0,0-1.469-.988,45.049,45.049,0,0,0-7.033,0A2.034,2.034,0,0,0,3.015,3.2,20.466,20.466,0,0,0,1.781,5.8,79.282,79.282,0,0,0,14.215,5.8Z" fill="#168de2"/>
      <path id="Path_219454" data-name="Path 219454" d="M13.627,6.972a2.284,2.284,0,0,0-.428.188,5.262,5.262,0,0,1-.694.333c-.4.151-.466.377-.466.377l-.035.047a.636.636,0,0,0,.63.97,7.686,7.686,0,0,0,1.737-.464A.622.622,0,0,0,14.75,8c0-.018.009-.037.012-.055A.874.874,0,0,0,13.627,6.972Z" fill="#fff"/>
      <path id="Path_219455" data-name="Path 219455" d="M14.455,10.566h-.862a.146.146,0,0,0-.1.249l.862.862a.146.146,0,0,0,.249-.1v-.862A.145.145,0,0,0,14.455,10.566Z" fill="#ffe21f"/>
      <path id="Path_219456" data-name="Path 219456" d="M15.261,12.277a.364.364,0,0,1-.361.322H13.242v.962a.617.617,0,0,0,.617.617H14.9a.617.617,0,0,0,.617-.617V10.55C15.449,10.967,15.316,11.8,15.261,12.277Z" fill="#454545"/>
      <path id="Path_219457" data-name="Path 219457" d="M15.988,5.127a.5.5,0,0,0-.49-.376h-.416a.482.482,0,0,0-.483.483v.3h-.22l.126.3h.485a1.747,1.747,0,0,0,.728-.158A.482.482,0,0,0,15.988,5.127Z" fill="#ed6262"/>
      <circle id="Ellipse_799" data-name="Ellipse 799" cx="0.607" cy="0.607" r="0.607" transform="translate(13.294 7.143)" fill="#ffbd49"/>
      <circle id="Ellipse_800" data-name="Ellipse 800" cx="0.446" cy="0.446" r="0.446" transform="translate(12.235 7.782)" fill="#ffdb6f"/>
      <path id="Path_219458" data-name="Path 219458" d="M11.526,8.228l-.7,1.213H5.171l-.7-1.213Z" fill="#6f6f6f"/>
      <path id="Path_219459" data-name="Path 219459" d="M3.994,7.916c-.011-.016-.022-.031-.035-.047,0,0-.068-.225-.466-.377A5.291,5.291,0,0,1,2.8,7.16a2.3,2.3,0,0,0-.428-.188.874.874,0,0,0-1.135.971c0,.018.008.037.012.055a.623.623,0,0,0,.378.424,7.684,7.684,0,0,0,1.737.464A.636.636,0,0,0,3.994,7.916Z" fill="#fff"/>
      <path id="Path_219460" data-name="Path 219460" d="M2.407,10.566H1.545a.145.145,0,0,0-.146.146v.862a.146.146,0,0,0,.249.1l.862-.862A.146.146,0,0,0,2.407,10.566Z" fill="#ffe21f"/>
      <path id="Path_219461" data-name="Path 219461" d="M13.736,12.069c-.9-1.552-1.929-1.5-1.929-1.5H4.192s-1.031-.049-1.929,1.5H.713l.019.2a.364.364,0,0,0,.362.331H14.906a.364.364,0,0,0,.363-.33l.019-.2Z" fill="#777"/>
      <path id="Path_219462" data-name="Path 219462" d="M1.1,12.6a.364.364,0,0,1-.361-.322C.684,11.8.551,10.967.483,10.551v3.012a.617.617,0,0,0,.617.617H2.141a.617.617,0,0,0,.617-.617V12.6H1.1Z" fill="#454545"/>
      <path id="Path_219463" data-name="Path 219463" d="M1.4,5.53v-.3a.482.482,0,0,0-.482-.483H.5a.5.5,0,0,0-.49.376.482.482,0,0,0,.27.545,1.749,1.749,0,0,0,.728.158h.485l.126-.3H1.4Z" fill="#ed6262"/>
      <circle id="Ellipse_801" data-name="Ellipse 801" cx="0.607" cy="0.607" r="0.607" transform="translate(1.493 7.143)" fill="#ffbd49"/>
      <circle id="Ellipse_802" data-name="Ellipse 802" cx="0.446" cy="0.446" r="0.446" transform="translate(2.875 7.782)" fill="#ffdb6f"/>
      <g id="Group_73422" data-name="Group 73422">
        <path id="Path_219464" data-name="Path 219464" d="M11.225,10.99H4.775a.183.183,0,0,0,0,.365h6.449a.183.183,0,0,0,0-.365Z" fill="#6f6f6f"/>
        <path id="Path_219465" data-name="Path 219465" d="M11.225,11.719H4.775a.183.183,0,1,0,0,.365h6.449a.183.183,0,0,0,0-.365Z" fill="#6f6f6f"/>
      </g>
      <path id="Path_219466" data-name="Path 219466" d="M13.539,4.254v.062a.442.442,0,0,1-.463.443.462.462,0,0,1-.418-.468v-.9a.37.37,0,0,0-.387-.367h-.015a.371.371,0,0,0-.387.367v.812a.442.442,0,0,1-.468.438.457.457,0,0,1-.418-.463V3.475a.392.392,0,0,0-.392-.388h-.03a.369.369,0,0,0-.368.368v.918a.446.446,0,0,1-.468.443.458.458,0,0,1-.413-.468V3.117A.351.351,0,0,0,8.94,2.77H8.91a.37.37,0,0,0-.372.368V4.395a.44.44,0,0,1-.88.015V3.354a.462.462,0,0,0-.418-.468.442.442,0,0,0-.463.443l0,.975a.442.442,0,0,1-.463.443.458.458,0,0,1-.415-.45V3.153a.458.458,0,0,0-.416-.464.443.443,0,0,0-.465.442v1.2a.445.445,0,0,1-.466.431.458.458,0,0,1-.413-.468v-.9a.374.374,0,0,0-.392-.367h-.01a.372.372,0,0,0-.392.367v.812a.438.438,0,0,1-.463.438.448.448,0,0,1-.41-.4c-.233.482-.463,1-.687,1.56a79.158,79.158,0,0,0,12.434,0Q13.88,4.962,13.539,4.254Z" fill="#3aa2eb"/>
    </g>
  </g>
</svg>
